<?xml version="1.0" encoding="utf-8"?>
<!-- Generator: Adobe Illustrator 12.0.0, SVG Export Plug-In . SVG Version: 6.00 Build 51448)  -->
<!DOCTYPE svg PUBLIC "-//W3C//DTD SVG 1.1//EN" "http://www.w3.org/Graphics/SVG/1.1/DTD/svg11.dtd" [
	<!ENTITY ns_svg "http://www.w3.org/2000/svg">
	<!ENTITY ns_xlink "http://www.w3.org/1999/xlink">
]>
<svg  version="1.1"
	 id="Ebene_1" xmlns:inkscape="http://www.inkscape.org/namespaces/inkscape" xmlns:sodipodi="http://sodipodi.sourceforge.net/DTD/sodipodi-0.dtd" xmlns:cc="http://creativecommons.org/ns#" inkscape:version="0.91 r13725" xmlns:dc="http://purl.org/dc/elements/1.1/" xmlns:svg="http://www.w3.org/2000/svg" xmlns:rdf="http://www.w3.org/1999/02/22-rdf-syntax-ns#" sodipodi:docname="Heizung_OG_(on)_icon.svg"
	 xmlns="&ns_svg;" xmlns:xlink="&ns_xlink;" width="44.668" height="44.67" viewBox="0 0 44.668 44.67"
	 overflow="visible" enable-background="new 0 0 44.668 44.67" xml:space="preserve">
<sodipodi:namedview  pagecolor="#ffffff" borderopacity="1" id="namedview10" inkscape:cy="22.334999" guidetolerance="10" inkscape:window-height="480" bordercolor="#666666" inkscape:pageshadow="2" inkscape:pageopacity="0" inkscape:window-width="687" inkscape:window-y="0" objecttolerance="10" gridtolerance="10" inkscape:window-maximized="0" showgrid="false" inkscape:current-layer="Ebene_1" inkscape:cx="22.334" inkscape:window-x="0" inkscape:zoom="5.283188">
	</sodipodi:namedview>
<path id="path4584_1_" fill="#E6E8F3" d="M22.334,0.5c12.059,0,21.834,9.775,21.834,21.835c0,12.059-9.775,21.835-21.834,21.835
	C10.275,44.17,0.5,34.394,0.5,22.335C0.5,10.275,10.275,0.5,22.334,0.5"/>
<path id="path4586_1_" fill="#F8CBD1" stroke="#E6483C" stroke-linecap="round" d="M22.334,0.5c12.059,0,21.834,9.775,21.834,21.835
	c0,12.059-9.775,21.835-21.834,21.835C10.275,44.17,0.5,34.394,0.5,22.335C0.5,10.275,10.275,0.5,22.334,0.5L22.334,0.5z"/>
<path id="path4588_1_" fill="#F8CBD1" stroke="#E6483C" d="M22.334,5.876c9.09,0,16.459,7.368,16.459,16.457
	c0,9.092-7.369,16.461-16.459,16.461S5.875,31.425,5.875,22.333C5.875,13.244,13.244,5.876,22.334,5.876z"/>
<g enable-background="new    ">
	<path d="M13.45,21.972c0-0.882,0.132-1.622,0.396-2.22c0.197-0.441,0.466-0.837,0.807-1.188c0.34-0.351,0.713-0.61,1.119-0.779
		c0.539-0.229,1.161-0.343,1.866-0.343c1.275,0,2.296,0.396,3.062,1.188c0.766,0.791,1.149,1.892,1.149,3.301
		c0,1.397-0.38,2.491-1.14,3.281c-0.76,0.789-1.776,1.184-3.048,1.184c-1.288,0-2.311-0.393-3.071-1.178
		C13.83,24.432,13.45,23.351,13.45,21.972z M15.255,21.913c0,0.98,0.227,1.725,0.679,2.23c0.453,0.507,1.027,0.76,1.724,0.76
		s1.269-0.251,1.715-0.754c0.447-0.502,0.67-1.256,0.67-2.26c0-0.993-0.218-1.733-0.652-2.223c-0.436-0.488-1.013-0.732-1.733-0.732
		c-0.72,0-1.301,0.247-1.742,0.742C15.476,20.171,15.255,20.916,15.255,21.913z"/>
</g>
<g enable-background="new    ">
	<path d="M27.241,23.067v-1.461h3.766v3.45c-0.366,0.354-0.896,0.666-1.591,0.935c-0.695,0.27-1.398,0.404-2.111,0.404
		c-0.904,0-1.693-0.189-2.367-0.57c-0.673-0.379-1.178-0.923-1.517-1.63c-0.339-0.706-0.508-1.476-0.508-2.306
		c0-0.902,0.188-1.703,0.567-2.404c0.377-0.7,0.931-1.238,1.659-1.611c0.555-0.288,1.246-0.432,2.073-0.432
		c1.074,0,1.914,0.225,2.518,0.675c0.605,0.449,0.994,1.071,1.167,1.864l-1.734,0.328c-0.122-0.425-0.352-0.76-0.688-1.006
		c-0.337-0.246-0.757-0.369-1.261-0.369c-0.764,0-1.371,0.242-1.821,0.727c-0.45,0.485-0.676,1.204-0.676,2.157
		c0,1.028,0.228,1.8,0.685,2.313c0.455,0.515,1.053,0.771,1.793,0.771c0.365,0,0.731-0.072,1.1-0.216
		c0.367-0.144,0.683-0.317,0.946-0.522v-1.098H27.241z"/>
</g>
</svg>
